
<svg xmlns="http://www.w3.org/2000/svg" viewBox="0 0 48 48">
  <path fill="#EA4335" d="M24 9.5c3.54 0 6.73 1.22 9.24 3.61l6.9-6.9C35.96 2.24 30.36 0 24 0 14.64 0 6.36 5.4 2.28 13.28l8.06 6.26C12.5 13.24 17.78 9.5 24 9.5z"/>
  <path fill="#4285F4" d="M46.5 24.5c0-1.66-.15-3.26-.43-4.8H24v9.1h12.68c-.55 2.96-2.2 5.47-4.68 7.15l7.28 5.65C43.74 37.5 46.5 31.5 46.5 24.5z"/>
  <path fill="#FBBC05" d="M10.34 28.54A14.49 14.49 0 0 1 9.5 24c0-1.58.28-3.1.84-4.54l-8.06-6.26A23.98 23.98 0 0 0 0 24c0 3.87.93 7.53 2.58 10.8l7.76-6.26z"/>
  <path fill="#34A853" d="M24 48c6.36 0 11.7-2.1 15.6-5.7l-7.28-5.65c-2.02 1.36-4.6 2.15-8.32 2.15-6.22 0-11.5-3.74-13.66-9.04l-7.76 6.26C6.36 42.6 14.64 48 24 48z"/>
</svg>
